<mxfile host="app.diagrams.net" modified="2023-11-14T16:00:29.792Z" agent="Mozilla/5.0 (Macintosh; Intel Mac OS X 10_15_7) AppleWebKit/537.36 (KHTML, like Gecko) Chrome/119.0.0.0 Safari/537.36" etag="gZb904DRgruiQXCT1DEx" version="22.1.1" type="github">
  <diagram name="Page-1" id="Qy2TzYvvnMDtDnxc6B2E">
    <mxGraphModel dx="1026" dy="612" grid="1" gridSize="10" guides="1" tooltips="1" connect="1" arrows="1" fold="1" page="1" pageScale="1" pageWidth="850" pageHeight="1100" math="0" shadow="0">
      <root>
        <mxCell id="0" />
        <mxCell id="1" parent="0" />
        <mxCell id="3l_620mSqwGG3C2m_9Dw-1" value="Patient" style="html=1;whiteSpace=wrap;" vertex="1" parent="1">
          <mxGeometry x="110" y="170" width="110" height="50" as="geometry" />
        </mxCell>
        <mxCell id="3l_620mSqwGG3C2m_9Dw-2" value="Doctor/Medical Professional" style="html=1;whiteSpace=wrap;" vertex="1" parent="1">
          <mxGeometry x="370" y="160" width="110" height="50" as="geometry" />
        </mxCell>
        <mxCell id="3l_620mSqwGG3C2m_9Dw-3" value="Appointment" style="html=1;whiteSpace=wrap;" vertex="1" parent="1">
          <mxGeometry x="90" y="350" width="110" height="50" as="geometry" />
        </mxCell>
        <mxCell id="3l_620mSqwGG3C2m_9Dw-4" value="Body Scan" style="html=1;whiteSpace=wrap;" vertex="1" parent="1">
          <mxGeometry x="540" y="270" width="110" height="50" as="geometry" />
        </mxCell>
        <mxCell id="3l_620mSqwGG3C2m_9Dw-5" value="Report&amp;nbsp;" style="html=1;whiteSpace=wrap;" vertex="1" parent="1">
          <mxGeometry x="300" y="410" width="110" height="50" as="geometry" />
        </mxCell>
        <mxCell id="3l_620mSqwGG3C2m_9Dw-6" value="Admin" style="html=1;whiteSpace=wrap;" vertex="1" parent="1">
          <mxGeometry x="560" y="410" width="110" height="50" as="geometry" />
        </mxCell>
      </root>
    </mxGraphModel>
  </diagram>
</mxfile>
